<svg id="visual" viewBox="0 0 960 540" width="960" height="540" xmlns="http://www.w3.org/2000/svg" xmlns:xlink="http://www.w3.org/1999/xlink" version="1.1"><rect x="0" y="0" width="960" height="540" fill="#222831"></rect><path d="M0 171L22.8 170.3C45.7 169.7 91.3 168.3 137 169.7C182.7 171 228.3 175 274 178.7C319.7 182.3 365.3 185.7 411.2 188.2C457 190.7 503 192.3 548.8 188C594.7 183.7 640.3 173.3 686 176.5C731.7 179.7 777.3 196.3 823 204.7C868.7 213 914.3 213 937.2 213L960 213L960 0L937.2 0C914.3 0 868.7 0 823 0C777.3 0 731.7 0 686 0C640.3 0 594.7 0 548.8 0C503 0 457 0 411.2 0C365.3 0 319.7 0 274 0C228.3 0 182.7 0 137 0C91.3 0 45.7 0 22.8 0L0 0Z" fill="#80e3ea"></path><path d="M0 116L22.8 116C45.7 116 91.3 116 137 127.3C182.7 138.7 228.3 161.3 274 170.5C319.7 179.7 365.3 175.3 411.2 166C457 156.7 503 142.3 548.8 139.8C594.7 137.3 640.3 146.7 686 146.8C731.7 147 777.3 138 823 133.2C868.7 128.3 914.3 127.7 937.2 127.3L960 127L960 0L937.2 0C914.3 0 868.7 0 823 0C777.3 0 731.7 0 686 0C640.3 0 594.7 0 548.8 0C503 0 457 0 411.2 0C365.3 0 319.7 0 274 0C228.3 0 182.7 0 137 0C91.3 0 45.7 0 22.8 0L0 0Z" fill="#64dee6"></path><path d="M0 95L22.8 95.7C45.7 96.3 91.3 97.7 137 103C182.7 108.3 228.3 117.7 274 125.5C319.7 133.3 365.3 139.7 411.2 135.2C457 130.7 503 115.3 548.8 116.8C594.7 118.3 640.3 136.7 686 137.2C731.7 137.7 777.3 120.3 823 115.7C868.7 111 914.3 119 937.2 123L960 127L960 0L937.2 0C914.3 0 868.7 0 823 0C777.3 0 731.7 0 686 0C640.3 0 594.7 0 548.8 0C503 0 457 0 411.2 0C365.3 0 319.7 0 274 0C228.3 0 182.7 0 137 0C91.3 0 45.7 0 22.8 0L0 0Z" fill="#3ed9e3"></path><path d="M0 97L22.8 100C45.7 103 91.3 109 137 109.5C182.7 110 228.3 105 274 102.2C319.7 99.3 365.3 98.7 411.2 102.2C457 105.7 503 113.3 548.8 111.3C594.7 109.3 640.3 97.7 686 96.7C731.7 95.7 777.3 105.3 823 109.3C868.7 113.3 914.3 111.7 937.2 110.8L960 110L960 0L937.2 0C914.3 0 868.7 0 823 0C777.3 0 731.7 0 686 0C640.3 0 594.7 0 548.8 0C503 0 457 0 411.2 0C365.3 0 319.7 0 274 0C228.3 0 182.7 0 137 0C91.3 0 45.7 0 22.8 0L0 0Z" fill="#1ccbd5"></path><path d="M0 87L22.8 80.8C45.7 74.7 91.3 62.3 137 57.8C182.7 53.3 228.3 56.7 274 62.7C319.7 68.7 365.3 77.3 411.2 80.8C457 84.3 503 82.7 548.8 82.2C594.7 81.7 640.3 82.3 686 76.7C731.7 71 777.3 59 823 59.8C868.7 60.7 914.3 74.3 937.2 81.2L960 88L960 0L937.2 0C914.3 0 868.7 0 823 0C777.3 0 731.7 0 686 0C640.3 0 594.7 0 548.8 0C503 0 457 0 411.2 0C365.3 0 319.7 0 274 0C228.3 0 182.7 0 137 0C91.3 0 45.7 0 22.8 0L0 0Z" fill="#1ab4bc"></path><path d="M0 19L22.8 25.2C45.7 31.3 91.3 43.7 137 44.2C182.7 44.7 228.3 33.3 274 28.3C319.7 23.3 365.3 24.7 411.2 25.8C457 27 503 28 548.8 33C594.7 38 640.3 47 686 46.2C731.7 45.3 777.3 34.7 823 31C868.7 27.3 914.3 30.7 937.2 32.3L960 34L960 0L937.2 0C914.3 0 868.7 0 823 0C777.3 0 731.7 0 686 0C640.3 0 594.7 0 548.8 0C503 0 457 0 411.2 0C365.3 0 319.7 0 274 0C228.3 0 182.7 0 137 0C91.3 0 45.7 0 22.8 0L0 0Z" fill="#179da4"></path></svg>