<svg id="visual" viewBox="0 0 960 540" width="960" height="540" xmlns="http://www.w3.org/2000/svg" xmlns:xlink="http://www.w3.org/1999/xlink" version="1.1"><rect x="0" y="0" width="960" height="540" fill="#222831"></rect><path d="M0 333L22.8 340.7C45.7 348.3 91.3 363.7 137 374.3C182.7 385 228.3 391 274 383.5C319.7 376 365.3 355 411.2 343.3C457 331.7 503 329.3 548.8 338.3C594.7 347.3 640.3 367.7 686 368.3C731.7 369 777.3 350 823 345.3C868.7 340.7 914.3 350.3 937.2 355.2L960 360L960 541L937.2 541C914.3 541 868.7 541 823 541C777.3 541 731.7 541 686 541C640.3 541 594.7 541 548.8 541C503 541 457 541 411.2 541C365.3 541 319.7 541 274 541C228.3 541 182.7 541 137 541C91.3 541 45.7 541 22.8 541L0 541Z" fill="#80e3ea"></path><path d="M0 391L22.8 392.5C45.7 394 91.3 397 137 391.8C182.7 386.7 228.3 373.3 274 373.5C319.7 373.7 365.3 387.3 411.2 391.3C457 395.3 503 389.7 548.8 386.5C594.7 383.3 640.3 382.7 686 387.7C731.7 392.7 777.3 403.3 823 405.2C868.7 407 914.3 400 937.2 396.5L960 393L960 541L937.2 541C914.3 541 868.7 541 823 541C777.3 541 731.7 541 686 541C640.3 541 594.7 541 548.8 541C503 541 457 541 411.2 541C365.3 541 319.7 541 274 541C228.3 541 182.7 541 137 541C91.3 541 45.7 541 22.8 541L0 541Z" fill="#64dee6"></path><path d="M0 395L22.8 393.2C45.7 391.3 91.3 387.7 137 387.3C182.7 387 228.3 390 274 392.7C319.7 395.3 365.3 397.7 411.2 398.3C457 399 503 398 548.8 405.8C594.7 413.7 640.3 430.3 686 431.8C731.7 433.3 777.3 419.7 823 417.5C868.7 415.3 914.3 424.7 937.2 429.3L960 434L960 541L937.2 541C914.3 541 868.7 541 823 541C777.3 541 731.7 541 686 541C640.3 541 594.7 541 548.8 541C503 541 457 541 411.2 541C365.3 541 319.7 541 274 541C228.3 541 182.7 541 137 541C91.3 541 45.7 541 22.8 541L0 541Z" fill="#3ed9e3"></path><path d="M0 429L22.8 436C45.7 443 91.3 457 137 459.2C182.7 461.3 228.3 451.7 274 451.5C319.7 451.3 365.3 460.7 411.2 460.5C457 460.3 503 450.7 548.8 442C594.7 433.3 640.3 425.7 686 428.3C731.7 431 777.3 444 823 449C868.7 454 914.3 451 937.2 449.5L960 448L960 541L937.2 541C914.3 541 868.7 541 823 541C777.3 541 731.7 541 686 541C640.3 541 594.7 541 548.8 541C503 541 457 541 411.2 541C365.3 541 319.7 541 274 541C228.3 541 182.7 541 137 541C91.3 541 45.7 541 22.8 541L0 541Z" fill="#1ccbd5"></path><path d="M0 468L22.8 470.5C45.7 473 91.3 478 137 475.7C182.7 473.3 228.3 463.7 274 463.2C319.7 462.7 365.3 471.3 411.2 478.2C457 485 503 490 548.8 491.8C594.7 493.7 640.3 492.3 686 492.2C731.7 492 777.3 493 823 489.5C868.7 486 914.3 478 937.2 474L960 470L960 541L937.2 541C914.3 541 868.7 541 823 541C777.3 541 731.7 541 686 541C640.3 541 594.7 541 548.8 541C503 541 457 541 411.2 541C365.3 541 319.7 541 274 541C228.3 541 182.7 541 137 541C91.3 541 45.7 541 22.8 541L0 541Z" fill="#1ab4bc"></path><path d="M0 515L22.8 515C45.7 515 91.3 515 137 509.7C182.7 504.3 228.3 493.7 274 489.7C319.7 485.7 365.3 488.3 411.2 488.2C457 488 503 485 548.8 487.7C594.7 490.3 640.3 498.7 686 503.3C731.7 508 777.3 509 823 504.7C868.7 500.3 914.3 490.7 937.2 485.8L960 481L960 541L937.2 541C914.3 541 868.7 541 823 541C777.3 541 731.7 541 686 541C640.3 541 594.7 541 548.8 541C503 541 457 541 411.2 541C365.3 541 319.7 541 274 541C228.3 541 182.7 541 137 541C91.3 541 45.7 541 22.8 541L0 541Z" fill="#179da4"></path></svg>